#N canvas 827 239 527 327 12;
#X floatatom 4 206 5 0 0 0 - - - 12;
#X obj 34 423 oscformat cv_threshold;
#X obj 34 459 list prepend send;
#X obj 34 496 list trim;
#X msg 271 136 connect localhost 12345;
#X msg 292 169 disconnect;
#X obj 187 879 netsend -u -b;
#X floatatom 49 235 5 0 0 0 - - - 12;
#X obj 202 459 list prepend send;
#X obj 202 496 list trim;
#X floatatom 107 263 5 0 0 0 - - - 12;
#X obj 394 459 list prepend send;
#X obj 394 496 list trim;
#X obj 24 53 vsl 17 128 0 250 0 0 empty empty threshold 0 -9 0 10 #e4e4e4 #4d4d4d #373737 0 1;
#X floatatom 49 206 5 0 0 0 - - - 12;
#X obj 117 664 list prepend send;
#X obj 117 701 list trim;
#X floatatom 107 235 5 0 0 0 - - - 12;
#X obj 340 657 list prepend send;
#X obj 340 694 list trim;
#X floatatom 150 285 5 0 0 0 - - - 12;
#X obj 550 657 list prepend send;
#X obj 550 694 list trim;
#X floatatom 192 285 4 0 0 0 - - - 12;
#X obj 595 459 list prepend send;
#X obj 595 496 list trim;
#X obj 53 66 vsl 17 128 0 250 0 0 empty empty area\ min 0 -9 0 10 #e4e4e4 #4d4d4d #373737 0 1;
#X obj 80 84 vsl 17 128 0 250 0 0 empty empty area\ max 0 -9 0 10 #e4e4e4 #4d4d4d #373737 0 1;
#X obj 111 95 vsl 17 128 0 250 0 0 empty empty age\ min 0 -9 0 10 #e4e4e4 #4d4d4d #373737 0 1;
#X obj 142 107 vsl 17 128 -1 250 0 0 empty empty age\ max 0 -9 0 10 #e4e4e4 #4d4d4d #373737 0 1;
#X obj 170 127 vsl 17 128 0 250 0 0 empty empty persist 0 -9 0 10 #e4e4e4 #4d4d4d #373737 0 1;
#X obj 196 146 vsl 17 128 0 250 0 0 empty empty dist 0 -9 0 10 #e4e4e4 #4d4d4d #373737 0 1;
#X obj 271 37 bng 25 250 50 0 empty empty connect 17 7 0 10 #e4e4e4 #4d4d4d #373737;
#X obj 271 80 bng 25 250 50 0 empty empty disconnect 17 7 0 10 #e4e4e4 #4d4d4d #373737;
#X obj 117 628 oscformat cv_area_radius_min;
#X obj 202 408 oscformat cv_area_radius_max, f 23;
#X obj 340 621 oscformat cv_tracker_age_min;
#X obj 394 408 oscformat cv_tracker_age_max, f 24;
#X obj 550 621 oscformat cv_tracker_persistence;
#X obj 595 423 oscformat cv_tracker_distance_max;
#X obj 139 19 bng 25 250 50 0 empty empty empty 17 7 0 10 #e4e4e4 #4d4d4d #373737;
#X obj 50 -154 loadbang;
#X obj 53 -117 bng 25 250 50 0 empty empty empty 17 7 0 10 #e4e4e4 #4d4d4d #373737;
#X msg 14 -58 110;
#X msg 57 -58 1;
#X msg 86 -58 255;
#X msg 128 -58 10;
#X msg 170 -58 -1;
#X msg 212 -58 15;
#X msg 249 -60 32;
#X obj 576 62 netreceive -u -b;
#X msg 576 -1 listen 12346;
#X obj 576 94 oscparse;
#X obj 497 171 print;
#X msg 621 25 listen 0;
#X obj 576 131 list trim;
#X floatatom 654 270 5 0 0 0 - - - 12;
#X floatatom 716 270 5 0 0 0 - - - 12;
#X floatatom 555 266 8 0 0 0 - - - 16;
#X text 586 297 label;
#X text 654 297 x;
#X text 716 297 y;
#X obj 944 745 list prepend send;
#X obj 944 782 list trim;
#X obj 1142 543 vsl 17 128 0 255 0 1 empty empty empty 0 -9 0 10 #e4e4e4 #4d4d4d #373737 12700 1;
#X obj 1112 745 list prepend send;
#X obj 1112 782 list trim;
#X obj 1184 543 vsl 17 128 0 255 0 1 empty empty empty 0 -9 0 10 #e4e4e4 #4d4d4d #373737 12700 1;
#X obj 1271 745 list prepend send;
#X obj 1271 782 list trim;
#X obj 1229 543 vsl 17 128 0 255 0 1 empty empty empty 0 -9 0 10 #e4e4e4 #4d4d4d #373737 12700 1;
#X obj 1432 745 list prepend send;
#X obj 1432 782 list trim;
#X obj 1271 543 vsl 17 128 0 255 0 1 empty empty empty 0 -9 0 10 #e4e4e4 #4d4d4d #373737 12700 1;
#X obj 916 1076 list prepend send;
#X obj 916 1113 list trim;
#X obj 916 1040 oscformat cv_r;
#X obj 1112 874 vsl 17 128 0 255 0 1 empty empty empty 0 -9 0 10 #e4e4e4 #4d4d4d #373737 5875 1;
#X obj 1084 1076 list prepend send;
#X obj 1084 1113 list trim;
#X obj 1156 874 vsl 17 128 0 255 0 1 empty empty empty 0 -9 0 10 #e4e4e4 #4d4d4d #373737 0 1;
#X obj 1243 1076 list prepend send;
#X obj 1243 1113 list trim;
#X obj 1201 874 vsl 17 128 0 255 0 1 empty empty empty 0 -9 0 10 #e4e4e4 #4d4d4d #373737 0 1;
#X obj 1404 1076 list prepend send;
#X obj 1404 1113 list trim;
#X obj 1243 874 vsl 17 128 0 255 0 1 empty empty empty 0 -9 0 10 #e4e4e4 #4d4d4d #373737 0 1;
#X obj 1084 1040 oscformat cv_g;
#X obj 1243 1040 oscformat cv_b;
#X obj 1404 1040 oscformat cv_a;
#X obj 916 1390 list prepend send;
#X obj 916 1427 list trim;
#X obj 1114 1188 vsl 17 128 0 255 0 1 empty empty empty 0 -9 0 10 #e4e4e4 #4d4d4d #373737 1207 1;
#X obj 1084 1390 list prepend send;
#X obj 1084 1427 list trim;
#X obj 1156 1188 vsl 17 128 0 255 0 1 empty empty empty 0 -9 0 10 #e4e4e4 #4d4d4d #373737 0 1;
#X obj 1243 1390 list prepend send;
#X obj 1243 1427 list trim;
#X obj 1201 1188 vsl 17 128 0 255 0 1 empty empty empty 0 -9 0 10 #e4e4e4 #4d4d4d #373737 6556 1;
#X obj 1404 1390 list prepend send;
#X obj 1404 1427 list trim;
#X obj 1243 1188 vsl 17 128 0 255 0 1 empty empty empty 0 -9 0 10 #e4e4e4 #4d4d4d #373737 12700 1;
#X obj 944 709 oscformat image_r;
#X obj 1112 709 oscformat image_g;
#X obj 1271 709 oscformat image_b;
#X obj 1432 709 oscformat image_a;
#X obj 916 1354 oscformat zoom_r;
#X obj 1084 1354 oscformat zoom_g;
#X obj 1243 1354 oscformat zoom_b;
#X obj 1404 1354 oscformat zoom_a;
#X obj 966 497 list prepend send;
#X obj 966 534 list trim;
#X obj 970 261 vsl 17 128 0 5 0 1 empty empty empty 0 -9 0 10 #e4e4e4 #4d4d4d #373737 9773 1;
#X obj 966 461 oscformat selected_video;
#X obj 609 221 unpack 0 0 0 0 0;
#X floatatom 791 277 5 0 0 0 - - - 12;
#X floatatom 867 277 5 0 0 0 - - - 12;
#X obj 1149 219 tgl 25 0 empty empty invert 17 7 0 10 #e4e4e4 #4d4d4d #373737 0 1;
#X floatatom 1149 263 5 0 0 0 - - - 12;
#X obj 1149 340 list prepend send;
#X obj 1149 377 list trim;
#X obj 1149 304 oscformat cv_invert;
#X obj 1620 975 tgl 25 0 empty empty blobs 17 7 0 10 #e4e4e4 #4d4d4d #373737 0 1;
#X floatatom 1620 1019 5 0 0 0 - - - 12;
#X obj 1620 1096 list prepend send;
#X obj 1620 1133 list trim;
#X obj 1620 1060 oscformat cv_blobs;
#X obj 1818 966 tgl 25 0 empty empty rectangles 17 7 0 10 #e4e4e4 #4d4d4d #373737 0 1;
#X floatatom 1818 1010 5 0 0 0 - - - 12;
#X obj 1818 1087 list prepend send;
#X obj 1818 1124 list trim;
#X obj 1818 1051 oscformat cv_rectangles;
#X obj 1349 219 tgl 25 0 empty empty autoselect 17 7 0 10 #e4e4e4 #4d4d4d #373737 0 1;
#X floatatom 1349 263 5 0 0 0 - - - 12;
#X obj 1349 340 list prepend send;
#X obj 1349 377 list trim;
#X obj 1349 304 oscformat cv_autoselect;
#X obj 1575 321 list prepend send;
#X obj 1575 358 list trim;
#X obj 1575 224 bng 25 250 50 0 empty empty select 17 7 0 10 #e4e4e4 #4d4d4d #373737;
#X obj 609 178 route selected_label;
#X msg 1279 1176 0;
#X msg 1316 1192 255;
#X msg 1285 845 0;
#X msg 1316 845 255;
#X obj 2014 966 tgl 25 0 empty empty rect\ fill 17 7 0 10 #e4e4e4 #4d4d4d #373737 0 1;
#X floatatom 2014 1010 5 0 0 0 - - - 12;
#X obj 2014 1087 list prepend send;
#X obj 2014 1124 list trim;
#X obj 1627 1181 tgl 25 0 empty empty velocity 17 7 0 10 #e4e4e4 #4d4d4d #373737 0 1;
#X floatatom 1627 1225 5 0 0 0 - - - 12;
#X obj 1627 1302 list prepend send;
#X obj 1627 1339 list trim;
#X obj 1627 1266 oscformat cv_velocity;
#X floatatom 1861 1205 5 0 0 0 - - - 12;
#X obj 1861 1282 list prepend send;
#X obj 1861 1319 list trim;
#X obj 1861 1249 oscformat cv_velocity_scale;
#X obj 2014 1051 oscformat cv_rectangle_fill;
#X obj 1575 285 oscformat cv_next_blob;
#X obj 1873 1167 bng 25 250 50 0 empty empty empty 17 7 0 10 #e4e4e4 #4d4d4d #373737;
#X obj 1795 219 tgl 25 0 empty empty all\ blobs 17 7 0 10 #e4e4e4 #4d4d4d #373737 0 1;
#X floatatom 1795 263 5 0 0 0 - - - 12;
#X obj 1795 340 list prepend send;
#X obj 1795 377 list trim;
#X obj 1795 304 oscformat cv_all_blobs;
#X floatatom 834 213 5 0 0 0 - - - 12;
#X floatatom 999 8 8 0 0 0 select\ this\ label - - 0;
#X obj 999 106 list prepend send;
#X obj 999 143 list trim;
#X obj 999 70 oscformat cv_select_blob_by_label;
#X floatatom 1299 8 8 0 0 0 select\ this\ index - - 0;
#X obj 1299 106 list prepend send;
#X obj 1299 143 list trim;
#X obj 1299 70 oscformat cv_select_blob_by_index;
#X obj 1620 1007 bng 25 250 50 0 empty empty empty 17 7 0 10 #e4e4e4 #4d4d4d #373737;
#X obj 1312 -73 bng 25 250 50 0 empty empty empty 17 7 0 10 #e4e4e4 #4d4d4d #373737;
#X obj 824 146 route blob;
#X obj 824 178 unpack 0;
#X connect 0 0 1 0;
#X connect 1 0 2 0;
#X connect 2 0 3 0;
#X connect 3 0 6 0;
#X connect 4 0 6 0;
#X connect 5 0 6 0;
#X connect 7 0 35 0;
#X connect 8 0 9 0;
#X connect 9 0 6 0;
#X connect 10 0 37 0;
#X connect 11 0 12 0;
#X connect 12 0 6 0;
#X connect 13 0 0 0;
#X connect 14 0 34 0;
#X connect 15 0 16 0;
#X connect 16 0 6 0;
#X connect 17 0 36 0;
#X connect 18 0 19 0;
#X connect 19 0 6 0;
#X connect 20 0 38 0;
#X connect 21 0 22 0;
#X connect 22 0 6 0;
#X connect 23 0 39 0;
#X connect 24 0 25 0;
#X connect 25 0 6 0;
#X connect 26 0 14 0;
#X connect 27 0 7 0;
#X connect 28 0 17 0;
#X connect 29 0 10 0;
#X connect 30 0 20 0;
#X connect 31 0 23 0;
#X connect 32 0 4 0;
#X connect 32 0 51 0;
#X connect 33 0 5 0;
#X connect 33 0 54 0;
#X connect 34 0 15 0;
#X connect 35 0 8 0;
#X connect 36 0 18 0;
#X connect 37 0 11 0;
#X connect 38 0 21 0;
#X connect 39 0 24 0;
#X connect 40 0 13 0;
#X connect 40 0 26 0;
#X connect 40 0 27 0;
#X connect 40 0 28 0;
#X connect 40 0 29 0;
#X connect 40 0 30 0;
#X connect 40 0 31 0;
#X connect 41 0 42 0;
#X connect 42 0 43 0;
#X connect 42 0 44 0;
#X connect 42 0 45 0;
#X connect 42 0 46 0;
#X connect 42 0 47 0;
#X connect 42 0 48 0;
#X connect 42 0 49 0;
#X connect 43 0 13 0;
#X connect 44 0 26 0;
#X connect 45 0 27 0;
#X connect 46 0 28 0;
#X connect 47 0 29 0;
#X connect 48 0 30 0;
#X connect 49 0 31 0;
#X connect 50 0 52 0;
#X connect 51 0 50 0;
#X connect 52 0 55 0;
#X connect 54 0 50 0;
#X connect 55 0 140 0;
#X connect 62 0 63 0;
#X connect 63 0 6 0;
#X connect 64 0 102 0;
#X connect 65 0 66 0;
#X connect 66 0 6 0;
#X connect 67 0 103 0;
#X connect 68 0 69 0;
#X connect 69 0 6 0;
#X connect 70 0 104 0;
#X connect 71 0 72 0;
#X connect 72 0 6 0;
#X connect 73 0 105 0;
#X connect 74 0 75 0;
#X connect 75 0 6 0;
#X connect 76 0 74 0;
#X connect 77 0 76 0;
#X connect 78 0 79 0;
#X connect 79 0 6 0;
#X connect 80 0 87 0;
#X connect 81 0 82 0;
#X connect 82 0 6 0;
#X connect 83 0 88 0;
#X connect 84 0 85 0;
#X connect 85 0 6 0;
#X connect 86 0 89 0;
#X connect 87 0 78 0;
#X connect 88 0 81 0;
#X connect 89 0 84 0;
#X connect 90 0 91 0;
#X connect 91 0 6 0;
#X connect 92 0 106 0;
#X connect 93 0 94 0;
#X connect 94 0 6 0;
#X connect 95 0 107 0;
#X connect 96 0 97 0;
#X connect 97 0 6 0;
#X connect 98 0 108 0;
#X connect 99 0 100 0;
#X connect 100 0 6 0;
#X connect 101 0 109 0;
#X connect 102 0 62 0;
#X connect 103 0 65 0;
#X connect 104 0 68 0;
#X connect 105 0 71 0;
#X connect 106 0 90 0;
#X connect 107 0 93 0;
#X connect 108 0 96 0;
#X connect 109 0 99 0;
#X connect 110 0 111 0;
#X connect 111 0 6 0;
#X connect 112 0 113 0;
#X connect 113 0 110 0;
#X connect 114 0 58 0;
#X connect 114 1 56 0;
#X connect 114 2 57 0;
#X connect 114 3 115 0;
#X connect 114 4 116 0;
#X connect 117 0 118 0;
#X connect 118 0 121 0;
#X connect 119 0 120 0;
#X connect 120 0 6 0;
#X connect 121 0 119 0;
#X connect 122 0 123 0;
#X connect 122 0 175 0;
#X connect 123 0 126 0;
#X connect 124 0 125 0;
#X connect 125 0 6 0;
#X connect 126 0 124 0;
#X connect 127 0 128 0;
#X connect 128 0 131 0;
#X connect 129 0 130 0;
#X connect 130 0 6 0;
#X connect 131 0 129 0;
#X connect 132 0 133 0;
#X connect 133 0 136 0;
#X connect 134 0 135 0;
#X connect 135 0 6 0;
#X connect 136 0 134 0;
#X connect 137 0 138 0;
#X connect 138 0 6 0;
#X connect 139 0 159 0;
#X connect 140 0 114 0;
#X connect 140 1 177 0;
#X connect 141 0 101 0;
#X connect 142 0 101 0;
#X connect 143 0 86 0;
#X connect 144 0 86 0;
#X connect 145 0 146 0;
#X connect 146 0 158 0;
#X connect 147 0 148 0;
#X connect 148 0 6 0;
#X connect 149 0 150 0;
#X connect 150 0 153 0;
#X connect 151 0 152 0;
#X connect 152 0 6 0;
#X connect 153 0 151 0;
#X connect 154 0 157 0;
#X connect 155 0 156 0;
#X connect 156 0 6 0;
#X connect 157 0 155 0;
#X connect 158 0 147 0;
#X connect 159 0 137 0;
#X connect 160 0 154 0;
#X connect 161 0 162 0;
#X connect 162 0 165 0;
#X connect 163 0 164 0;
#X connect 164 0 6 0;
#X connect 165 0 163 0;
#X connect 167 0 170 0;
#X connect 168 0 169 0;
#X connect 169 0 6 0;
#X connect 170 0 168 0;
#X connect 171 0 174 0;
#X connect 172 0 173 0;
#X connect 173 0 6 0;
#X connect 174 0 172 0;
#X connect 176 0 171 0;
#X connect 177 0 178 0;
#X connect 178 0 166 0;
