#N canvas 827 239 527 327 12;
#X floatatom 34 388 5 0 0 0 - - - 12;
#X obj 34 423 oscformat cv_threshold, f 22;
#X obj 34 459 list prepend send;
#X obj 34 496 list trim;
#X msg -93 694 connect localhost 12345;
#X msg -72 727 disconnect;
#X obj 187 879 netsend -u -b;
#X floatatom 202 373 5 0 0 0 - - - 12;
#X obj 202 459 list prepend send;
#X obj 202 496 list trim;
#X floatatom 394 373 5 0 0 0 - - - 12;
#X obj 394 459 list prepend send;
#X obj 394 496 list trim;
#X obj 24 35 vsl 17 128 0 250 0 0 empty empty empty 0 -9 0 10 #e4e4e4 #4d4d4d #373737 0 1;
#X floatatom 117 593 5 0 0 0 - - - 12;
#X obj 117 664 list prepend send;
#X obj 117 701 list trim;
#X floatatom 340 586 5 0 0 0 - - - 12;
#X obj 340 657 list prepend send;
#X obj 340 694 list trim;
#X floatatom 550 586 5 0 0 0 - - - 12;
#X obj 550 657 list prepend send;
#X obj 550 694 list trim;
#X floatatom 595 386 5 0 0 0 - - - 12;
#X obj 595 459 list prepend send;
#X obj 595 496 list trim;
#X obj 51 35 vsl 17 128 0 250 0 0 empty empty empty 0 -9 0 10 #e4e4e4 #4d4d4d #373737 0 1;
#X obj 76 35 vsl 17 128 0 250 0 0 empty empty empty 0 -9 0 10 #e4e4e4 #4d4d4d #373737 0 1;
#X obj 102 35 vsl 17 128 0 250 0 0 empty empty empty 0 -9 0 10 #e4e4e4 #4d4d4d #373737 0 1;
#X obj 131 35 vsl 17 128 0 250 0 0 empty empty empty 0 -9 0 10 #e4e4e4 #4d4d4d #373737 0 1;
#X obj 160 35 vsl 17 128 0 250 0 0 empty empty empty 0 -9 0 10 #e4e4e4 #4d4d4d #373737 0 1;
#X obj 189 35 vsl 17 128 0 250 0 0 empty empty empty 0 -9 0 10 #e4e4e4 #4d4d4d #373737 0 1;
#X obj 255 40 bng 25 250 50 0 empty empty connect 17 7 0 10 #e4e4e4 #4d4d4d #373737;
#X obj 255 83 bng 25 250 50 0 empty empty disconnect 17 7 0 10 #e4e4e4 #4d4d4d #373737;
#X obj 117 628 oscformat cv_area_radius_min;
#X obj 202 408 oscformat cv_area_radius_max, f 23;
#X obj 340 621 oscformat cv_tracker_age_min;
#X obj 394 408 oscformat cv_tracker_age_max, f 24;
#X obj 550 621 oscformat cv_tracker_persistence;
#X obj 595 423 oscformat cv_tracker_distance_max;
#X connect 0 0 1 0;
#X connect 1 0 2 0;
#X connect 2 0 3 0;
#X connect 3 0 6 0;
#X connect 4 0 6 0;
#X connect 5 0 6 0;
#X connect 7 0 35 0;
#X connect 8 0 9 0;
#X connect 9 0 6 0;
#X connect 10 0 37 0;
#X connect 11 0 12 0;
#X connect 12 0 6 0;
#X connect 13 0 0 0;
#X connect 14 0 34 0;
#X connect 15 0 16 0;
#X connect 16 0 6 0;
#X connect 17 0 36 0;
#X connect 18 0 19 0;
#X connect 19 0 6 0;
#X connect 20 0 38 0;
#X connect 21 0 22 0;
#X connect 22 0 6 0;
#X connect 23 0 39 0;
#X connect 24 0 25 0;
#X connect 25 0 6 0;
#X connect 26 0 14 0;
#X connect 27 0 7 0;
#X connect 28 0 17 0;
#X connect 29 0 10 0;
#X connect 30 0 20 0;
#X connect 31 0 23 0;
#X connect 32 0 4 0;
#X connect 33 0 5 0;
#X connect 34 0 15 0;
#X connect 35 0 8 0;
#X connect 36 0 18 0;
#X connect 37 0 11 0;
#X connect 38 0 21 0;
#X connect 39 0 24 0;
